<mxfile host="Electron" agent="Mozilla/5.0 (Windows NT 10.0; Win64; x64) AppleWebKit/537.36 (KHTML, like Gecko) draw.io/28.2.5 Chrome/138.0.7204.251 Electron/37.6.1 Safari/537.36" version="28.2.5">
  <diagram id="page-1" name="Use Case (editable)">
    <mxGraphModel dx="1544" dy="1018" grid="1" gridSize="10" guides="1" tooltips="1" connect="1" arrows="1" fold="1" page="1" pageScale="1" pageWidth="1400" pageHeight="900" background="none" math="0" shadow="0">
      <root>
        <mxCell id="0" />
        <mxCell id="1" parent="0" />
        <mxCell id="layer0" value="" style="layer=1" parent="1" vertex="1">
          <mxGeometry as="geometry" />
        </mxCell>
        <mxCell id="actor_user" value="user" style="shape=umlActor;html=1;" parent="1" vertex="1">
          <mxGeometry x="50" y="80" width="40" height="100" as="geometry" />
        </mxCell>
        <mxCell id="actor_admin" value="ADMIN" style="shape=umlActor;html=1;" parent="1" vertex="1">
          <mxGeometry x="50" y="560" width="40" height="100" as="geometry" />
        </mxCell>
        <mxCell id="actor_doctor" value="DOCTOR" style="shape=umlActor;html=1;" parent="1" vertex="1">
          <mxGeometry x="1250" y="340" width="50" height="120" as="geometry" />
        </mxCell>
        <mxCell id="uc_appt" value="Appointment Booking" style="shape=ellipse;whiteSpace=wrap;html=1;" parent="1" vertex="1">
          <mxGeometry x="200" y="80" width="180" height="48" as="geometry" />
        </mxCell>
        <mxCell id="uc_medhist" value="MEDICAL HISTORY" style="shape=ellipse;whiteSpace=wrap;html=1;" parent="1" vertex="1">
          <mxGeometry x="200" y="150" width="180" height="48" as="geometry" />
        </mxCell>
        <mxCell id="uc_reports" value="Reports" style="shape=ellipse;whiteSpace=wrap;html=1;" parent="1" vertex="1">
          <mxGeometry x="200" y="220" width="180" height="48" as="geometry" />
        </mxCell>
        <mxCell id="uc_login" value="Login/Signup" style="shape=ellipse;whiteSpace=wrap;html=1;" parent="1" vertex="1">
          <mxGeometry x="200" y="290" width="180" height="48" as="geometry" />
        </mxCell>
        <mxCell id="uc_security" value="SECURITY" style="shape=ellipse;whiteSpace=wrap;html=1;" parent="1" vertex="1">
          <mxGeometry x="200" y="360" width="180" height="48" as="geometry" />
        </mxCell>
        <mxCell id="uc_payment" value="Payment" style="shape=ellipse;whiteSpace=wrap;html=1;" parent="1" vertex="1">
          <mxGeometry x="200" y="430" width="180" height="48" as="geometry" />
        </mxCell>
        <mxCell id="uc_subs" value="subscription" style="shape=ellipse;whiteSpace=wrap;html=1;" parent="1" vertex="1">
          <mxGeometry x="200" y="500" width="180" height="48" as="geometry" />
        </mxCell>
        <mxCell id="uc_email" value="Email Reminder" style="shape=ellipse;whiteSpace=wrap;html=1;" parent="1" vertex="1">
          <mxGeometry x="520" y="330" width="180" height="48" as="geometry" />
        </mxCell>
        <mxCell id="uc_support" value="SUPPORT" style="shape=ellipse;whiteSpace=wrap;html=1;" parent="1" vertex="1">
          <mxGeometry x="700" y="360" width="180" height="48" as="geometry" />
        </mxCell>
        <mxCell id="uc_analysis" value="ANALYSIS" style="shape=ellipse;whiteSpace=wrap;html=1;" parent="1" vertex="1">
          <mxGeometry x="420" y="620" width="180" height="48" as="geometry" />
        </mxCell>
        <mxCell id="uc_hsec" value="Hospital SECURITY" style="shape=ellipse;whiteSpace=wrap;html=1;" parent="1" vertex="1">
          <mxGeometry x="420" y="680" width="220" height="48" as="geometry" />
        </mxCell>
        <mxCell id="uc_billing" value="Billing" style="shape=ellipse;whiteSpace=wrap;html=1;" parent="1" vertex="1">
          <mxGeometry x="420" y="740" width="180" height="48" as="geometry" />
        </mxCell>
        <mxCell id="uc_publish" value="PUBLISHING" style="shape=ellipse;whiteSpace=wrap;html=1;" parent="1" vertex="1">
          <mxGeometry x="700" y="620" width="180" height="48" as="geometry" />
        </mxCell>
        <mxCell id="uc_verify" value="VERIFICATION" style="shape=ellipse;whiteSpace=wrap;html=1;" parent="1" vertex="1">
          <mxGeometry x="700" y="680" width="180" height="48" as="geometry" />
        </mxCell>
        <mxCell id="uc_query" value="QUERY SUPPORT" style="shape=ellipse;whiteSpace=wrap;html=1;" parent="1" vertex="1">
          <mxGeometry x="700" y="740" width="180" height="48" as="geometry" />
        </mxCell>
        <mxCell id="uc_maint" value="Maintenance" style="shape=ellipse;whiteSpace=wrap;html=1;" parent="1" vertex="1">
          <mxGeometry x="980" y="720" width="180" height="48" as="geometry" />
        </mxCell>
        <mxCell id="uc_patient_details" value="Patient Details" style="shape=ellipse;whiteSpace=wrap;html=1;" parent="1" vertex="1">
          <mxGeometry x="980" y="40" width="180" height="48" as="geometry" />
        </mxCell>
        <mxCell id="uc_own_info" value="Own Information" style="shape=ellipse;whiteSpace=wrap;html=1;" parent="1" vertex="1">
          <mxGeometry x="980" y="100" width="180" height="48" as="geometry" />
        </mxCell>
        <mxCell id="uc_rating" value="rating" style="shape=ellipse;whiteSpace=wrap;html=1;" parent="1" vertex="1">
          <mxGeometry x="980" y="160" width="160" height="48" as="geometry" />
        </mxCell>
        <mxCell id="uc_patient_analysis" value="Patient ANALYSIS" style="shape=ellipse;whiteSpace=wrap;html=1;" parent="1" vertex="1">
          <mxGeometry x="700" y="220" width="200" height="48" as="geometry" />
        </mxCell>
        <mxCell id="uc_analysis_reports" value="ANALYSIS REPORTS" style="shape=ellipse;whiteSpace=wrap;html=1;" parent="1" vertex="1">
          <mxGeometry x="980" y="250" width="200" height="48" as="geometry" />
        </mxCell>
        <mxCell id="uc_earn" value="earning + Revenue" style="shape=ellipse;whiteSpace=wrap;html=1;" parent="1" vertex="1">
          <mxGeometry x="980" y="310" width="220" height="48" as="geometry" />
        </mxCell>
        <mxCell id="uc_chat" value="chat" style="shape=ellipse;whiteSpace=wrap;html=1;" parent="1" vertex="1">
          <mxGeometry x="980" y="370" width="120" height="48" as="geometry" />
        </mxCell>
        <mxCell id="e_user_uc_appt" value="" style="endArrow=none;html=1;" parent="1" source="actor_user" target="uc_appt" edge="1">
          <mxGeometry as="geometry" />
        </mxCell>
        <mxCell id="e_user_uc_medhist" value="" style="endArrow=none;html=1;" parent="1" source="actor_user" target="uc_medhist" edge="1">
          <mxGeometry as="geometry" />
        </mxCell>
        <mxCell id="e_user_uc_reports" value="" style="endArrow=none;html=1;" parent="1" source="actor_user" target="uc_reports" edge="1">
          <mxGeometry as="geometry" />
        </mxCell>
        <mxCell id="e_user_uc_login" value="" style="endArrow=none;html=1;" parent="1" source="actor_user" target="uc_login" edge="1">
          <mxGeometry as="geometry" />
        </mxCell>
        <mxCell id="e_user_uc_security" value="" style="endArrow=none;html=1;" parent="1" source="actor_user" target="uc_security" edge="1">
          <mxGeometry as="geometry" />
        </mxCell>
        <mxCell id="e_user_uc_payment" value="" style="endArrow=none;html=1;" parent="1" source="actor_user" target="uc_payment" edge="1">
          <mxGeometry as="geometry" />
        </mxCell>
        <mxCell id="e_user_uc_subs" value="" style="endArrow=none;html=1;" parent="1" source="actor_user" target="uc_subs" edge="1">
          <mxGeometry as="geometry" />
        </mxCell>
        <mxCell id="e_user_uc_support" value="" style="endArrow=none;html=1;" parent="1" source="actor_user" target="uc_support" edge="1">
          <mxGeometry as="geometry" />
        </mxCell>
        <mxCell id="e_user_patient_analysis" value="" style="endArrow=none;html=1;" parent="1" source="actor_user" target="uc_patient_analysis" edge="1">
          <mxGeometry as="geometry" />
        </mxCell>
        <mxCell id="e_doc_uc_patient_details" value="" style="endArrow=none;html=1;" parent="1" source="actor_doctor" target="uc_patient_details" edge="1">
          <mxGeometry as="geometry" />
        </mxCell>
        <mxCell id="e_doc_uc_own_info" value="" style="endArrow=none;html=1;" parent="1" source="actor_doctor" target="uc_own_info" edge="1">
          <mxGeometry as="geometry" />
        </mxCell>
        <mxCell id="e_doc_uc_rating" value="" style="endArrow=none;html=1;" parent="1" source="actor_doctor" target="uc_rating" edge="1">
          <mxGeometry as="geometry" />
        </mxCell>
        <mxCell id="e_doc_uc_analysis_reports" value="" style="endArrow=none;html=1;" parent="1" source="actor_doctor" target="uc_analysis_reports" edge="1">
          <mxGeometry as="geometry" />
        </mxCell>
        <mxCell id="e_doc_uc_earn" value="" style="endArrow=none;html=1;" parent="1" source="actor_doctor" target="uc_earn" edge="1">
          <mxGeometry as="geometry" />
        </mxCell>
        <mxCell id="e_doc_uc_chat" value="" style="endArrow=none;html=1;" parent="1" source="actor_doctor" target="uc_chat" edge="1">
          <mxGeometry as="geometry" />
        </mxCell>
        <mxCell id="e_doc_uc_patient_analysis" value="" style="endArrow=none;html=1;" parent="1" source="actor_doctor" target="uc_patient_analysis" edge="1">
          <mxGeometry as="geometry" />
        </mxCell>
        <mxCell id="e_doc_uc_support" value="" style="endArrow=none;html=1;" parent="1" source="actor_doctor" target="uc_support" edge="1">
          <mxGeometry as="geometry" />
        </mxCell>
        <mxCell id="e_admin_uc_analysis" value="" style="endArrow=none;html=1;" parent="1" source="actor_admin" target="uc_analysis" edge="1">
          <mxGeometry as="geometry" />
        </mxCell>
        <mxCell id="e_admin_uc_hsec" value="" style="endArrow=none;html=1;" parent="1" source="actor_admin" target="uc_hsec" edge="1">
          <mxGeometry as="geometry" />
        </mxCell>
        <mxCell id="e_admin_uc_billing" value="" style="endArrow=none;html=1;" parent="1" source="actor_admin" target="uc_billing" edge="1">
          <mxGeometry as="geometry" />
        </mxCell>
        <mxCell id="e_admin_uc_publish" value="" style="endArrow=none;html=1;" parent="1" source="actor_admin" target="uc_publish" edge="1">
          <mxGeometry as="geometry" />
        </mxCell>
        <mxCell id="e_admin_uc_verify" value="" style="endArrow=none;html=1;" parent="1" source="actor_admin" target="uc_verify" edge="1">
          <mxGeometry as="geometry" />
        </mxCell>
        <mxCell id="e_admin_uc_query" value="" style="endArrow=none;html=1;" parent="1" source="actor_admin" target="uc_query" edge="1">
          <mxGeometry as="geometry" />
        </mxCell>
        <mxCell id="e_admin_uc_maint" value="" style="endArrow=none;html=1;" parent="1" source="actor_admin" target="uc_maint" edge="1">
          <mxGeometry as="geometry" />
        </mxCell>
        <mxCell id="inc_medhist_rating" value="&lt;&lt;include&gt;&gt;" style="dashed=1;endArrow=block;endFill=1;html=1;" parent="1" source="uc_medhist" target="uc_rating" edge="1">
          <mxGeometry as="geometry" />
        </mxCell>
        <mxCell id="exc_reports_patientAnalysis" value="&lt;&lt;exclude&gt;&gt;" style="dashed=1;endArrow=block;endFill=1;html=1;" parent="1" source="uc_reports" target="uc_patient_analysis" edge="1">
          <mxGeometry as="geometry" />
        </mxCell>
        <mxCell id="inc_payment_email" value="&lt;&lt;include&gt;&gt;" style="dashed=1;endArrow=block;endFill=1;html=1;" parent="1" source="uc_payment" target="uc_email" edge="1">
          <mxGeometry as="geometry" />
        </mxCell>
        <mxCell id="inc_subs_email" value="&lt;&lt;include&gt;&gt;" style="dashed=1;endArrow=block;endFill=1;html=1;" parent="1" source="uc_subs" target="uc_email" edge="1">
          <mxGeometry as="geometry" />
        </mxCell>
        <mxCell id="inc_email_support" value="&lt;&lt;include&gt;&gt;" style="dashed=1;endArrow=open;html=1;" parent="1" source="uc_email" target="uc_support" edge="1">
          <mxGeometry as="geometry" />
        </mxCell>
        <mxCell id="sys_boundary" value="" style="shape=rectangle;perimeter=rectanglePerimeter;strokeColor=#000000;fillColor=none;" parent="1" vertex="1">
          <mxGeometry x="120" y="20" width="1100" height="560" as="geometry" />
        </mxCell>
      </root>
    </mxGraphModel>
  </diagram>
</mxfile>
